PathFileType	4	(X/Y/Z)	./resultDataOpenSim/trcMotMarkerGrf/sub09/qtm-12-01.trc
DataRate	CameraRate	NumFrames	NumMarkers	Units	OrigDataRate	OrigDataStartFrame	OrigNumFrames
250.000000	250.000000	5	24	m	250.000000	193	513
Frame#	Time	L.Toe.Tip			R.Toe.Tip			L.Ankle.Lat			R.Ankle.Lat			L.Ankle.Med			R.Ankle.Med			L.Heel			R.Heel			L.Knee.Lat			R.Knee.Lat			L.Knee.Med			R.Knee.Med			L.Thigh.Upper			R.Thigh.Upper			L.ASIS			R.ASIS			V.Sacral			L.Acromium			R.Acromium			C7			L.Elbow			R.Elbow			L.Wrist.Lat			R.Wrist.Lat
		X1	Y1	Z1	X2	Y2	Z2	X3	Y3	Z3	X4	Y4	Z4	X5	Y5	Z5	X6	Y6	Z6	X7	Y7	Z7	X8	Y8	Z8	X9	Y9	Z9	X10	Y10	Z10	X11	Y11	Z11	X12	Y12	Z12	X13	Y13	Z13	X14	Y14	Z14	X15	Y15	Z15	X16	Y16	Z16	X17	Y17	Z17	X18	Y18	Z18	X19	Y19	Z19	X20	Y20	Z20	X21	Y21	Z21	X22	Y22	Z22	X23	Y23	Z23	X24	Y24	Z24

193	0.768	0.13681985	0.0159106	-0.01237586	-0.5469001	0.078913066	0.083548329	-0.010394728	0.047380044	-0.055636854	-0.59194588	0.22622536	0.11979634	0.0092652764	0.063702714	0.042183451	-0.53736528	0.22438178	0.03598506	-0.082919662	0.011509903	-0.006944723	-0.63296324	0.27161632	0.063345061	0.048057839	0.45471131	-0.11264401	-0.1944943	0.42962615	0.19409722	0.04608255	0.45877985	0.012179336	-0.18460985	0.4085782	0.067444787	-0.13104062	0.83420412	-0.15707395	-0.18837399	0.82848195	0.21349163	-0.067436661	0.92337419	-0.089698824	-0.080964689	0.91733785	0.15429372	-0.24064855	0.9730582	0.022469538	-0.090391408	1.3657907	-0.15328367	-0.11326041	1.3921571	0.1774028	-0.16751109	1.4278305	0.00709711	-0.24965046	1.0399868	-0.21087606	-0.2684306	1.0638097	0.27346178	-0.14824745	0.79977782	-0.25914196	-0.11578343	0.83426931	0.29523587
194	0.772	0.13674991	0.015915767	-0.012360505	-0.53608749	0.082818525	0.085451796	-0.010340356	0.047338964	-0.055645681	-0.58076114	0.230727	0.12002528	0.0092961329	0.0636245	0.04225698	-0.52630196	0.22846631	0.036122858	-0.08300812	0.011489101	-0.0069172472	-0.62188422	0.27610866	0.06347992	0.050479464	0.45442534	-0.1126173	-0.18224876	0.4300152	0.19422064	0.048289749	0.45845511	0.012192079	-0.17294787	0.40951729	0.067675025	-0.12585104	0.83498649	-0.15741243	-0.18242176	0.82929966	0.21315424	-0.06205543	0.9240421	-0.089985437	-0.075504277	0.91832428	0.15398215	-0.23556023	0.97398014	0.022616123	-0.083688426	1.3665882	-0.15315582	-0.10728022	1.3929081	0.17748748	-0.16117273	1.4288735	0.0071096979	-0.24267613	1.0405495	-0.21125017	-0.26315544	1.064974	0.27347881	-0.14020958	0.80060594	-0.25885338	-0.11196798	0.83453152	0.2952155
195	0.776	0.13668112	0.01592855	-0.012374648	-0.52442842	0.086886662	0.087492746	-0.010259021	0.047293413	-0.055694227	-0.5692895	0.23512688	0.12027561	0.0093208047	0.06355275	0.042310993	-0.5150391	0.23254238	0.036138194	-0.08308808	0.011443961	-0.0068786651	-0.61061639	0.28007662	0.063374757	0.052781091	0.45418784	-0.11256086	-0.16993576	0.43058078	0.1943125	0.050717252	0.45813867	0.012311429	-0.16149371	0.41070058	0.068079118	-0.120646	0.83594201	-0.15781134	-0.17649301	0.83020227	0.21282071	-0.056688194	0.92480454	-0.090290895	-0.070077114	0.91937488	0.15366937	-0.23061229	0.97453646	0.021934876	-0.076996649	1.367448	-0.15300615	-0.10132422	1.3937163	0.17758306	-0.15484396	1.429954	0.0071438115	-0.23572807	1.0411799	-0.21164004	-0.25777523	1.066189	0.27344896	-0.13216457	0.80150976	-0.2585282	-0.10820537	0.83485057	0.29518275
196	0.78	0.13660916	0.01595053	-0.012420626	-0.51205553	0.091011845	0.089633299	-0.010170946	0.047243437	-0.055785076	-0.55752855	0.23929499	0.12058542	0.0093440684	0.063507975	0.042306147	-0.50351489	0.23640294	0.036142705	-0.083159694	0.011353386	-0.0067869583	-0.59908238	0.28358382	0.063158158	0.055007048	0.45400741	-0.11250086	-0.15756203	0.43130262	0.19435001	0.053430315	0.45790015	0.012557422	-0.15006544	0.41209684	0.068438133	-0.11540457	0.8370752	-0.15826605	-0.17058165	0.83118126	0.21249168	-0.051351167	0.92567729	-0.090628555	-0.06467201	0.92049867	0.15333765	-0.22581637	0.97490144	0.020483902	-0.070335182	1.3683775	-0.15283287	-0.095402019	1.3945873	0.17769178	-0.1485378	1.4310794	0.0072016881	-0.22881004	1.0418792	-0.21205354	-0.25237112	1.0674507	0.27336969	-0.12411867	0.80249579	-0.25816725	-0.1045034	0.83523574	0.29513917
197	0.784	0.13653018	0.015981802	-0.012490455	-0.49911873	0.095075794	0.091792422	-0.010091	0.047193621	-0.055910049	-0.5454941	0.24310725	0.12096784	0.0093713879	0.063505632	0.042222442	-0.49172199	0.23992832	0.036201395	-0.083225942	0.011216495	-0.0066341626	-0.58730035	0.286734	0.062986553	0.057187493	0.45387351	-0.11247911	-0.14513465	0.43216625	0.19431814	0.056228763	0.45774104	0.012828265	-0.13837576	0.41360309	0.068539366	-0.11019497	0.83835907	-0.15876169	-0.16467415	0.83222941	0.21217499	-0.046050883	0.9266705	-0.090993099	-0.059259313	0.92168976	0.15295834	-0.22103887	0.97543477	0.018862786	-0.063706054	1.3693732	-0.15263113	-0.089508907	1.3955172	0.17781157	-0.1422587	1.4322564	0.0072816953	-0.22192089	1.0426504	-0.21248999	-0.24702245	1.06876	0.27324905	-0.11607764	0.80356592	-0.25777239	-0.10085732	0.83569185	0.29508368
